<svg width="56" height="56" viewBox="0 0 56 56" fill="none" xmlns="http://www.w3.org/2000/svg">
<g clip-path="url(#clip0_274_194)">
<path d="M41.9999 23.3333H39.0599C38.187 19.9522 36.3831 16.8839 33.8534 14.4768C31.3237 12.0698 28.1696 10.4206 24.7494 9.71656C21.3292 9.01256 17.7802 9.28201 14.5055 10.4943C11.2308 11.7066 8.36176 13.8131 6.22445 16.5745C4.08715 19.3359 2.76724 22.6414 2.41472 26.1154C2.06219 29.5895 2.69118 33.0927 4.23021 36.2272C5.76924 39.3616 8.1566 42.0015 11.121 43.8469C14.0854 45.6923 17.508 46.6692 20.9999 46.6666H41.9999C45.0941 46.6666 48.0616 45.4374 50.2495 43.2495C52.4374 41.0616 53.6666 38.0941 53.6666 34.9999C53.6666 31.9057 52.4374 28.9383 50.2495 26.7503C48.0616 24.5624 45.0941 23.3333 41.9999 23.3333Z" stroke="black" stroke-width="6" stroke-linecap="round" stroke-linejoin="round"/>
</g>
<path d="M23 30L17 35.0164L23 39" stroke="black" stroke-width="3"/>
<path d="M35 30L41 35.0164L35 39" stroke="black" stroke-width="3"/>
<path d="M31 30L26 39" stroke="black" stroke-width="2"/>
<defs>
<clipPath id="clip0_274_194">
<rect width="56" height="56" fill="white"/>
</clipPath>
</defs>
</svg>
