<svg width="62" height="62" viewBox="0 0 62 62" fill="none" xmlns="http://www.w3.org/2000/svg">
<g clip-path="url(#clip0_92_232)">
<path d="M30.8318 61.6636C47.8597 61.6636 61.6636 47.8597 61.6636 30.8318C61.6636 13.8039 47.8597 0 30.8318 0C13.8039 0 0 13.8039 0 30.8318C0 47.8597 13.8039 61.6636 30.8318 61.6636Z" fill="#A0A0A0"/>
<path d="M40.857 9.46362H34.027C29.9738 9.46362 25.4656 11.1683 25.4656 17.0435C25.4853 19.0907 25.4656 21.0513 25.4656 23.2577H20.7766V30.7192H25.6107V52.1996H34.4935V30.5775H40.3564L40.8869 23.2368H34.3404C34.3404 23.2368 34.3551 19.9714 34.3404 19.0231C34.3404 16.7013 36.7563 16.8343 36.9016 16.8343C38.0512 16.8343 40.2865 16.8376 40.8603 16.8343V9.46362H40.857V9.46362Z" fill="white"/>
</g>
<defs>
<clipPath id="clip0_92_232">
<rect width="61.6636" height="61.6636" fill="white"/>
</clipPath>
</defs>
</svg>
