<svg width="62" height="62" viewBox="0 0 62 62" fill="none" xmlns="http://www.w3.org/2000/svg">
<g clip-path="url(#clip0_92_233)">
<path d="M61.8319 31.5688C61.8319 29.491 61.6263 27.3462 61.2837 25.3354H31.6167V37.199H48.6084C47.9233 41.0195 45.6623 44.3707 42.3051 46.5156L52.4453 54.2235C58.4061 48.7944 61.8319 40.8854 61.8319 31.5688Z" fill="#A0A0A0"/>
<path d="M31.6166 61.5966C40.1125 61.5966 47.238 58.8486 52.4452 54.1568L42.305 46.5158C39.4958 48.3926 35.8645 49.465 31.6166 49.465C23.3948 49.465 16.4747 44.0359 13.9397 36.7971L3.52539 44.6391C8.86957 55.0281 19.695 61.5966 31.6166 61.5966Z" fill="#A0A0A0"/>
<path d="M13.9397 36.73C12.6379 32.9095 12.6379 28.7539 13.9397 24.9334L3.52541 17.0244C-0.928068 25.7378 -0.928068 35.9927 3.52541 44.639L13.9397 36.73Z" fill="#A0A0A0"/>
<path d="M31.6166 12.2655C36.0701 12.1985 40.455 13.8741 43.6753 16.8903L52.6507 8.0429C46.964 2.8149 39.4273 -0.000182029 31.6166 0.0668436C19.695 0.0668436 8.86957 6.63536 3.52539 17.0243L13.9397 24.9334C16.4747 17.6276 23.3948 12.2655 31.6166 12.2655Z" fill="#A0A0A0"/>
</g>
<defs>
<clipPath id="clip0_92_233">
<rect width="61.6636" height="61.6636" fill="white" transform="translate(0.168213)"/>
</clipPath>
</defs>
</svg>
