<svg width="35" height="36" viewBox="0 0 35 36" fill="none" xmlns="http://www.w3.org/2000/svg">
<path d="M34.999 17.9848C34.999 26.054 30.7019 35.8927 17.7523 35.8927C8.01984 35.9572 0.0748978 28.1254 0 18.3931C0.0748978 8.66064 8.01984 0.828793 17.7523 0.893464C21.7785 0.908397 25.6824 2.2782 28.8353 4.78226C29.053 4.96023 29.187 5.22093 29.2047 5.50168C29.2059 5.78574 29.0939 6.05858 28.8936 6.26C27.6278 7.4173 26.4207 8.63731 25.277 9.91546C24.9444 10.2816 24.3869 10.3323 23.9937 10.0321C22.1973 8.7027 20.0054 8.01769 17.7717 8.08773C12.0266 8.08773 7.36923 12.7451 7.36923 18.4903C7.36923 24.2354 12.0266 28.8928 17.7717 28.8928C23.6049 28.8928 26.0742 26.404 27.3575 21.9902H18.4717C17.9348 21.9902 17.4995 21.5549 17.4995 21.018V15.8654C17.4995 15.3283 17.9348 14.8932 18.4717 14.8932H34.0268C34.4744 14.8903 34.852 15.2259 34.9018 15.671C34.9739 16.44 35.0064 17.2123 34.999 17.9848Z" fill="black"/>
</svg>
