<svg width="56" height="56" viewBox="0 0 56 56" fill="none" xmlns="http://www.w3.org/2000/svg">
<g clip-path="url(#clip0_264_247)">
<path d="M42.0001 23.3333H39.0601C38.1871 19.9522 36.3833 16.8839 33.8536 14.4768C31.3239 12.0698 28.1697 10.4206 24.7495 9.71656C21.3294 9.01256 17.7803 9.28201 14.5056 10.4943C11.2309 11.7066 8.36188 13.8131 6.22458 16.5745C4.08727 19.3359 2.76736 22.6414 2.41484 26.1154C2.06231 29.5895 2.6913 33.0927 4.23033 36.2272C5.76936 39.3616 8.15673 42.0015 11.1211 43.8469C14.0856 45.6923 17.5082 46.6692 21.0001 46.6666H42.0001C45.0942 46.6666 48.0617 45.4374 50.2496 43.2495C52.4376 41.0616 53.6667 38.0941 53.6667 34.9999C53.6667 31.9057 52.4376 28.9383 50.2496 26.7503C48.0617 24.5624 45.0942 23.3333 42.0001 23.3333Z" stroke="#F3F3F3" stroke-width="6" stroke-linecap="round" stroke-linejoin="round"/>
</g>
<path d="M23 30L17 35.0164L23 39" stroke="#E4E4E4" stroke-width="3"/>
<path d="M35 30L41 35.0164L35 39" stroke="#E4E4E4" stroke-width="3"/>
<path d="M31 30L26 39" stroke="#E4E4E4" stroke-width="2"/>
<defs>
<clipPath id="clip0_264_247">
<rect width="56" height="56" fill="white"/>
</clipPath>
</defs>
</svg>
