<svg width="139" height="114" viewBox="0 0 139 114" fill="none" xmlns="http://www.w3.org/2000/svg">
<path d="M124.14 17.5H120.647C119.61 13.5152 117.467 9.89897 114.462 7.06209C111.457 4.22521 107.71 2.28148 103.647 1.45176C99.5836 0.622043 95.3673 0.939611 91.477 2.36838C87.5867 3.79715 84.1783 6.27982 81.6392 9.5343C79.1001 12.7888 77.5321 16.6846 77.1133 20.779C76.6945 24.8734 77.4417 29.0022 79.2701 32.6964C81.0985 36.3905 83.9346 39.5019 87.4563 41.6768C90.978 43.8517 95.044 45.0031 99.1923 45H124.14C127.816 45 131.341 43.5513 133.941 40.9727C136.54 38.3941 138 34.8967 138 31.25C138 27.6033 136.54 24.1059 133.941 21.5273C131.341 18.9487 127.816 17.5 124.14 17.5Z" fill="white" stroke="black" stroke-linecap="round" stroke-linejoin="round"/>
<rect x="2.5" y="5.5" width="107" height="107" rx="19.5" fill="#3763D1" stroke="black"/>
<rect x="16.5" y="25.5" width="79" height="19" fill="#6187F9" stroke="black"/>
<rect x="16.5" y="55.5" width="79" height="19" fill="#6187F9" stroke="black"/>
<rect x="16.5" y="83.5" width="79" height="19" fill="#6187F9" stroke="black"/>
<circle cx="23" cy="32" r="2.5" fill="#3FFF6C" stroke="black"/>
<circle cx="77" cy="16" r="2.5" fill="#FFD53F" stroke="black"/>
<circle cx="68" cy="16" r="2.5" fill="#3FFF6C" stroke="black"/>
<circle cx="86" cy="16" r="2.5" fill="#FF3F3F" stroke="black"/>
<circle cx="23" cy="62" r="2.5" fill="#3FFF6C" stroke="black"/>
<circle cx="23" cy="90" r="2.5" fill="#3FFF6C" stroke="black"/>
<path d="M47.5945 86.75H44.2164C43.2133 82.9464 41.1406 79.4945 38.2339 76.7865C35.3272 74.0786 31.703 72.2232 27.773 71.4312C23.8431 70.6392 19.7651 70.9424 16.0023 72.3062C12.2396 73.67 8.94298 76.0398 6.48713 79.1464C4.03129 82.2529 2.51466 85.9716 2.1096 89.8799C1.70453 93.7882 2.42726 97.7294 4.19567 101.256C5.96407 104.782 8.70725 107.752 12.1135 109.828C15.5197 111.904 19.4524 113.003 23.4647 113H47.5945C51.1499 113 54.5596 111.617 57.0736 109.156C59.5876 106.694 61 103.356 61 99.875C61 96.394 59.5876 93.0556 57.0736 90.5942C54.5596 88.1328 51.1499 86.75 47.5945 86.75Z" fill="white" stroke="black" stroke-linecap="round" stroke-linejoin="round"/>
<path d="M29.5932 11.125H27.4747C26.8456 8.67981 25.5458 6.46073 23.723 4.71992C21.9001 2.9791 19.6273 1.78636 17.1627 1.27722C14.6982 0.768072 12.1408 0.962943 9.78112 1.83969C7.42143 2.71643 5.35407 4.23989 3.81396 6.23696C2.27386 8.23402 1.32275 10.6246 1.06873 13.1371C0.814704 15.6496 1.26794 18.1832 2.37694 20.4501C3.48595 22.7169 5.20624 24.6261 7.34235 25.9608C9.47846 27.2954 11.9447 28.0019 14.4609 28H29.5932C31.8228 28 33.9611 27.111 35.5377 25.5287C37.1143 23.9464 38 21.8003 38 19.5625C38 17.3247 37.1143 15.1786 35.5377 13.5963C33.9611 12.0139 31.8228 11.125 29.5932 11.125Z" fill="white" stroke="black" stroke-linecap="round" stroke-linejoin="round"/>
</svg>
