<svg width="62" height="62" viewBox="0 0 62 62" fill="none" xmlns="http://www.w3.org/2000/svg">
<g clip-path="url(#clip0_92_234)">
<path d="M31.1682 61.6636C48.1962 61.6636 62 47.8597 62 30.8318C62 13.8039 48.1962 0 31.1682 0C14.1403 0 0.336426 13.8039 0.336426 30.8318C0.336426 47.8597 14.1403 61.6636 31.1682 61.6636Z" fill="#A0A0A0"/>
<path d="M51.733 30.8318C51.7391 31.2542 51.6867 31.6758 51.5757 32.0835C51.4647 32.4913 51.2967 32.8821 51.0762 33.2428C50.8566 33.6035 50.5868 33.9319 50.2754 34.2179C49.964 34.5038 49.614 34.7443 49.2356 34.9324C49.2441 35.0449 49.251 35.1582 49.2549 35.2715C49.2641 35.4975 49.2641 35.7238 49.2549 35.9498C49.251 36.0631 49.2441 36.1765 49.2356 36.289C49.2356 43.1953 41.1885 48.8067 31.2606 48.8067C21.3328 48.8067 13.2857 43.1953 13.2857 36.289C13.2772 36.1765 13.2703 36.0631 13.2664 35.9498C13.2572 35.7238 13.2572 35.4975 13.2664 35.2715C13.2703 35.1582 13.2772 35.0449 13.2857 34.9324C12.6928 34.6598 12.1661 34.2617 11.7423 33.7656C11.3184 33.2694 11.0073 32.6871 10.8307 32.0589C10.6544 31.4304 10.6168 30.7711 10.7206 30.1266C10.8244 29.4822 11.0672 28.868 11.4319 28.3267C11.7964 27.7854 12.2743 27.33 12.8323 26.9919C13.3904 26.6538 14.0154 26.4412 14.6639 26.3689C15.3124 26.2962 15.9691 26.3654 16.5882 26.5717C17.2074 26.778 17.7743 27.1164 18.2496 27.5636C19.1321 26.9655 20.0566 26.432 21.016 25.9673C21.9756 25.5033 22.9677 25.1086 23.9843 24.788C25.001 24.4673 26.04 24.2214 27.0922 24.0511C28.1443 23.8807 29.208 23.7875 30.274 23.7713L32.5556 13.0726C32.581 12.9485 32.6311 12.8314 32.7028 12.7266C32.7737 12.6225 32.8654 12.5331 32.971 12.4645C33.0774 12.3959 33.1961 12.3489 33.321 12.3257C33.4451 12.3034 33.573 12.3057 33.6964 12.3327L41.2501 13.8434C42.0125 12.5339 43.6126 11.9727 45.0255 12.5184C46.4384 13.0642 47.2462 14.5556 46.9301 16.0371C46.6149 17.5186 45.2691 18.5515 43.7568 18.4736C42.2437 18.3958 41.0112 17.2303 40.8493 15.7242L34.2513 14.3367L32.2473 23.9563C33.3002 23.9786 34.3508 24.0773 35.3898 24.2507C37.4705 24.5975 39.4903 25.2429 41.3866 26.1669C42.3337 26.6278 43.2464 27.1564 44.1175 27.7486C44.7439 27.1472 45.5309 26.74 46.3836 26.5762C47.2364 26.4118 48.1185 26.4977 48.9234 26.8236C49.7285 27.1494 50.4221 27.7011 50.9205 28.4122C51.4192 29.1234 51.7013 29.9637 51.733 30.8318V30.8318ZM21.1355 35.095C21.2912 35.4689 21.5178 35.8088 21.8045 36.0947C22.0905 36.3815 22.4304 36.6081 22.8042 36.7638C23.1784 36.9185 23.5794 36.9982 23.9843 36.9981C25.2315 36.9981 26.3553 36.2466 26.8332 35.095C27.3103 33.9427 27.0459 32.6169 26.1641 31.7351C25.2824 30.8533 23.9566 30.589 22.8042 31.0661C21.6527 31.544 20.9012 32.6678 20.9012 33.9149C20.9012 34.3196 20.9805 34.7204 21.1355 35.095V35.095ZM38.7944 42.4962C38.9524 42.342 39.0426 42.1316 39.0457 41.9112C39.0488 41.69 38.9632 41.4772 38.809 41.3192C38.6549 41.1612 38.4445 41.071 38.224 41.0679C38.0028 41.0648 37.79 41.1504 37.612 41.2837C37.1484 41.6163 36.6574 41.9089 36.1444 42.1586C35.6313 42.4084 35.0981 42.6144 34.5504 42.7745C34.0031 42.934 33.4428 43.0473 32.8762 43.1128C32.3089 43.1784 31.7378 43.1953 31.1681 43.1645C30.5993 43.1899 30.0289 43.1668 29.4639 43.0959C28.8988 43.0257 28.3407 42.907 27.7959 42.7413C27.2502 42.5764 26.7207 42.3652 26.2112 42.1108C25.7017 41.8564 25.2145 41.5589 24.7551 41.2221C24.5956 41.091 24.3929 41.024 24.1863 41.034C23.9797 41.044 23.7847 41.1311 23.6382 41.2768C23.4926 41.4233 23.4055 41.6183 23.3954 41.8248C23.3854 42.0314 23.4525 42.2341 23.5835 42.3937C24.1254 42.8022 24.7012 43.1629 25.3047 43.4728C25.9082 43.7827 26.538 44.0393 27.1854 44.2413C27.8329 44.4432 28.4966 44.5889 29.1695 44.6776C29.8424 44.7654 30.5214 44.7955 31.199 44.7677C31.8765 44.7955 32.5556 44.7654 33.2285 44.6776C34.5762 44.5003 35.8835 44.0928 37.0932 43.4728C37.6968 43.1629 38.2726 42.8022 38.8144 42.3937L38.7944 42.4962ZM38.2286 37.2448C38.6464 37.2494 39.0611 37.1685 39.4473 37.0081C39.8334 36.847 40.1826 36.6096 40.474 36.3098C40.7653 36.01 40.9919 35.6539 41.1415 35.2631C41.2911 34.8727 41.3596 34.456 41.3426 34.0383C41.3426 32.7911 40.5911 31.6673 39.4395 31.1894C38.2872 30.7123 36.9614 30.9767 36.0797 31.8585C35.1979 32.7402 34.9335 34.066 35.4106 35.2184C35.8885 36.3699 37.0123 37.1214 38.2595 37.1214L38.2286 37.2448Z" fill="white"/>
</g>
<defs>
<clipPath id="clip0_92_234">
<rect width="61.6636" height="61.6636" fill="white" transform="translate(0.336426)"/>
</clipPath>
</defs>
</svg>
